<svg xmlns="http://www.w3.org/2000/svg" viewBox="0 0 32 32">
  <!-- rounded square background -->
  <rect width="32" height="32" rx="7" fill="#4338ca"/>
  <!-- open book: left page -->
  <path d="M5 11 C5 10 6 9 7 9 L15 9 L15 23 L7 23 C6 23 5 22 5 21 Z" fill="white"/>
  <!-- open book: right page (slightly dimmed to show depth) -->
  <path d="M27 11 C27 10 26 9 25 9 L17 9 L17 23 L25 23 C26 23 27 22 27 21 Z" fill="white" opacity="0.75"/>
  <!-- spine -->
  <rect x="15" y="9" width="2" height="14" fill="#4338ca"/>
  <!-- text lines on left page -->
  <rect x="7" y="12" width="6" height="1.5" rx="0.75" fill="#4338ca" opacity="0.3"/>
  <rect x="7" y="15" width="5" height="1.5" rx="0.75" fill="#4338ca" opacity="0.3"/>
  <rect x="7" y="18" width="6" height="1.5" rx="0.75" fill="#4338ca" opacity="0.3"/>
</svg>
